<?xml version="1.0" standalone="no"?>
<!DOCTYPE svg PUBLIC "-//W3C//DTD SVG 20010904//EN"
 "http://www.w3.org/TR/2001/REC-SVG-20010904/DTD/svg10.dtd">
<svg version="1.0" xmlns="http://www.w3.org/2000/svg"
 width="750.000000pt" height="750.000000pt" viewBox="0 0 750.000000 750.000000"
 preserveAspectRatio="xMidYMid meet">
<metadata>
Created by potrace 1.11, written by Peter Selinger 2001-2013
</metadata>
<g transform="translate(0.000000,750.000000) scale(0.100000,-0.100000)"
fill="#000000" stroke="none">
<path d="M4520 6199 c0 -5 5 -7 10 -4 6 3 10 8 10 11 0 2 -4 4 -10 4 -5 0 -10
-5 -10 -11z"/>
<path d="M4470 6049 c0 -11 5 -17 10 -14 6 3 10 13 10 21 0 8 -4 14 -10 14 -5
0 -10 -9 -10 -21z"/>
<path d="M4450 5978 c0 -19 2 -20 10 -8 13 19 13 30 0 30 -5 0 -10 -10 -10
-22z"/>
<path d="M4425 5917 c-4 -10 -5 -21 -1 -24 10 -10 18 4 13 24 -4 17 -4 17 -12
0z"/>
<path d="M4400 5840 c0 -11 5 -20 10 -20 6 0 10 9 10 20 0 11 -4 20 -10 20 -5
0 -10 -9 -10 -20z"/>
<path d="M4377 5771 c-3 -12 -1 -24 4 -27 13 -8 24 25 12 37 -7 7 -12 3 -16
-10z"/>
<path d="M4357 5713 c-11 -10 -8 -43 3 -43 6 0 10 11 10 25 0 26 -2 29 -13 18z"/>
<path d="M4330 5614 c0 -14 4 -23 10 -19 6 3 10 15 10 26 0 10 -4 19 -10 19
-5 0 -10 -12 -10 -26z"/>
<path d="M5725 5610 c3 -5 8 -10 11 -10 2 0 4 5 4 10 0 6 -5 10 -11 10 -5 0
-7 -4 -4 -10z"/>
<path d="M5700 5590 c0 -5 5 -10 10 -10 6 0 10 5 10 10 0 6 -4 10 -10 10 -5 0
-10 -4 -10 -10z"/>
<path d="M4305 5555 c-4 -17 -10 -39 -15 -50 -4 -11 -16 -47 -25 -80 -10 -33
-20 -64 -23 -69 -7 -12 -132 -375 -173 -501 -16 -49 -33 -99 -38 -110 -13 -26
-21 -58 -18 -66 1 -4 -28 -38 -64 -76 -110 -117 -151 -231 -148 -415 1 -69 -3
-114 -10 -121 -6 -6 -12 -22 -13 -37 -4 -65 -15 241 -17 464 0 137 -3 247 -6
244 -3 -2 -8 -225 -12 -494 -7 -558 -18 -508 89 -401 32 31 62 57 66 57 5 0
17 -10 28 -21 73 -82 215 -159 457 -248 289 -107 377 -177 377 -301 0 -91 -54
-164 -150 -204 -136 -56 -413 -41 -693 40 -65 19 -123 34 -128 34 -5 0 -9 -77
-9 -180 l0 -179 38 -10 c236 -63 506 -86 712 -60 220 27 356 85 473 200 105
105 148 199 163 366 21 228 -99 424 -330 537 -51 25 -171 75 -265 111 -95 36
-196 77 -224 92 -54 30 -127 93 -127 111 0 6 17 26 38 46 74 70 124 116 128
116 2 0 31 28 64 61 51 52 66 62 102 66 61 7 270 -22 372 -52 47 -14 89 -25
91 -25 3 0 4 75 3 167 l-3 168 -78 16 c-43 9 -81 20 -85 23 -3 4 12 21 33 39
22 17 77 69 123 115 45 45 84 82 86 82 2 0 21 17 43 38 74 71 165 152 170 152
7 0 33 28 33 35 0 8 27 35 35 35 10 0 35 28 35 39 0 6 5 11 10 11 6 0 33 21
60 48 81 77 99 92 110 92 5 0 10 5 10 11 0 11 25 39 35 39 12 0 37 31 31 38
-4 3 -10 2 -14 -3 -4 -6 -23 -23 -42 -39 -53 -43 -127 -107 -168 -146 -21 -19
-60 -53 -87 -75 -45 -35 -85 -70 -134 -115 -9 -8 -45 -37 -80 -65 -35 -27 -73
-59 -85 -70 -12 -11 -57 -49 -101 -85 -44 -36 -89 -73 -100 -83 -11 -10 -35
-27 -52 -38 -18 -12 -33 -24 -33 -27 0 -4 -93 -7 -207 -8 -226 0 -275 -7 -418
-63 -57 -22 -72 -25 -65 -12 15 28 40 114 40 137 0 13 5 26 10 29 6 3 10 19
10 35 0 16 5 32 10 35 6 3 10 21 10 40 0 18 5 35 10 37 6 2 13 27 17 56 3 28
10 52 14 52 5 0 9 16 9 35 0 19 5 35 10 35 6 0 10 14 10 31 0 17 7 38 16 46
10 11 14 26 10 45 -4 21 -2 28 9 28 10 0 15 11 15 35 0 19 5 35 10 35 6 0 10
16 10 35 0 19 4 35 9 35 14 0 23 49 12 68 -8 14 -10 12 -16 -13z"/>
<path d="M540 3878 c0 -486 -3 -927 -7 -980 l-6 -98 191 0 192 0 1 63 c1 34 0
214 -1 400 l-2 337 371 0 371 0 0 155 0 155 -370 0 -370 0 0 270 0 270 393 2
392 3 3 153 3 152 -581 0 -580 0 0 -882z"/>
<path d="M2150 4553 c0 -114 0 -446 0 -738 -1 -291 -1 -639 0 -772 l0 -243
185 0 185 0 0 298 c0 163 4 302 8 309 5 8 69 16 187 22 271 16 398 54 549 162
113 81 194 216 227 374 45 217 6 417 -109 561 -48 60 -150 131 -244 168 -139
55 -173 58 -595 63 l-393 5 0 -209z m708 -113 c108 -25 196 -92 235 -179 13
-30 22 -74 25 -126 7 -146 -43 -262 -143 -330 -78 -52 -137 -65 -307 -65
l-148 0 0 355 0 355 148 0 c81 0 166 -5 190 -10z"/>
<path d="M5624 3783 l-290 -978 126 -6 c68 -3 151 -3 184 0 l59 6 37 130 c20
72 45 156 54 188 l17 57 342 0 342 0 40 -142 c21 -79 45 -164 53 -190 l14 -48
204 0 c112 0 204 1 204 3 0 1 -130 441 -289 977 l-289 975 -259 3 -259 2 -290
-977z m660 162 c64 -231 119 -428 122 -437 5 -17 -11 -18 -251 -18 -222 0
-256 2 -252 15 4 8 61 210 129 450 67 239 125 430 129 423 4 -7 59 -202 123
-433z"/>
<path d="M7291 3774 c0 -11 3 -14 6 -6 3 7 2 16 -1 19 -3 4 -6 -2 -5 -13z"/>
<path d="M3568 3713 c7 -3 16 -2 19 1 4 3 -2 6 -13 5 -11 0 -14 -3 -6 -6z"/>
<path d="M3408 3663 c7 -3 16 -2 19 1 4 3 -2 6 -13 5 -11 0 -14 -3 -6 -6z"/>
<path d="M2095 3290 c-3 -5 3 -10 14 -10 12 0 21 5 21 10 0 6 -6 10 -14 10 -8
0 -18 -4 -21 -10z"/>
<path d="M2018 3263 c6 -2 18 -2 25 0 6 3 1 5 -13 5 -14 0 -19 -2 -12 -5z"/>
<path d="M1933 3243 c9 -2 23 -2 30 0 6 3 -1 5 -18 5 -16 0 -22 -2 -12 -5z"/>
<path d="M1860 3220 c-12 -8 -11 -10 8 -10 12 0 22 5 22 10 0 13 -11 13 -30 0z"/>
<path d="M1773 3193 c9 -2 25 -2 35 0 9 3 1 5 -18 5 -19 0 -27 -2 -17 -5z"/>
<path d="M1680 3170 c0 -5 9 -10 19 -10 11 0 23 5 26 10 4 6 -5 10 -19 10 -14
0 -26 -4 -26 -10z"/>
<path d="M7242 3155 c0 -16 2 -22 5 -12 2 9 2 23 0 30 -3 6 -5 -1 -5 -18z"/>
<path d="M1613 3143 c9 -2 23 -2 30 0 6 3 -1 5 -18 5 -16 0 -22 -2 -12 -5z"/>
<path d="M1528 3123 c12 -2 30 -2 40 0 9 3 -1 5 -23 4 -22 0 -30 -2 -17 -4z"/>
<path d="M1440 3100 c0 -5 6 -10 14 -10 8 0 18 5 21 10 3 6 -3 10 -14 10 -12
0 -21 -4 -21 -10z"/>
<path d="M1363 3073 c9 -2 25 -2 35 0 9 3 1 5 -18 5 -19 0 -27 -2 -17 -5z"/>
<path d="M1293 3053 c9 -2 23 -2 30 0 6 3 -1 5 -18 5 -16 0 -22 -2 -12 -5z"/>
<path d="M7222 3035 c0 -16 2 -22 5 -12 2 9 2 23 0 30 -3 6 -5 -1 -5 -18z"/>
<path d="M1190 3030 c0 -5 11 -10 25 -10 14 0 25 5 25 10 0 6 -11 10 -25 10
-14 0 -25 -4 -25 -10z"/>
<path d="M1123 3003 c9 -2 25 -2 35 0 9 3 1 5 -18 5 -19 0 -27 -2 -17 -5z"/>
<path d="M1033 2983 c9 -2 25 -2 35 0 9 3 1 5 -18 5 -19 0 -27 -2 -17 -5z"/>
<path d="M950 2960 c0 -5 14 -10 31 -10 17 0 28 4 24 10 -3 6 -17 10 -31 10
-13 0 -24 -4 -24 -10z"/>
<path d="M460 2820 c-11 -7 -4 -10 25 -10 29 0 36 3 25 10 -8 5 -19 10 -25 10
-5 0 -17 -5 -25 -10z"/>
<path d="M393 2793 c9 -2 25 -2 35 0 9 3 1 5 -18 5 -19 0 -27 -2 -17 -5z"/>
<path d="M7147 2763 c-11 -10 -8 -43 3 -43 6 0 10 11 10 25 0 26 -2 29 -13 18z"/>
<path d="M7120 2674 c0 -8 5 -12 10 -9 6 4 8 11 5 16 -9 14 -15 11 -15 -7z"/>
<path d="M7102 2600 c0 -14 2 -19 5 -12 2 6 2 18 0 25 -3 6 -5 1 -5 -13z"/>
<path d="M7075 2541 c-3 -5 -1 -12 5 -16 5 -3 10 1 10 9 0 18 -6 21 -15 7z"/>
<path d="M7052 2470 c0 -14 2 -19 5 -12 2 6 2 18 0 25 -3 6 -5 1 -5 -13z"/>
<path d="M7032 2410 c0 -14 2 -19 5 -12 2 6 2 18 0 25 -3 6 -5 1 -5 -13z"/>
<path d="M7006 2355 c-3 -8 -1 -15 4 -15 6 0 10 7 10 15 0 8 -2 15 -4 15 -2 0
-6 -7 -10 -15z"/>
<path d="M6955 2247 c-4 -10 -5 -21 -1 -24 10 -10 18 4 13 24 -4 17 -4 17 -12
0z"/>
<path d="M6930 2190 c0 -11 5 -20 10 -20 6 0 10 9 10 20 0 11 -4 20 -10 20 -5
0 -10 -9 -10 -20z"/>
<path d="M6911 2154 c0 -11 3 -14 6 -6 3 7 2 16 -1 19 -3 4 -6 -2 -5 -13z"/>
<path d="M6880 2111 c0 -6 5 -13 10 -16 6 -3 10 1 10 9 0 9 -4 16 -10 16 -5 0
-10 -4 -10 -9z"/>
<path d="M6850 2032 c-8 -9 -22 -31 -30 -47 -8 -17 -18 -32 -21 -35 -3 -3 -19
-27 -34 -55 -16 -27 -32 -52 -35 -55 -3 -3 -17 -24 -32 -46 -15 -23 -38 -54
-52 -69 -14 -15 -26 -34 -26 -41 0 -7 -3 -14 -7 -16 -5 -1 -28 -28 -53 -58
-118 -146 -331 -362 -430 -438 -41 -31 -82 -65 -91 -74 -9 -10 -20 -18 -25
-18 -5 0 -27 -16 -49 -35 -22 -19 -43 -35 -46 -35 -3 0 -16 -9 -29 -20 -12
-11 -46 -34 -74 -52 -28 -18 -53 -35 -56 -38 -9 -10 -85 -55 -125 -75 -22 -11
-51 -28 -64 -37 -13 -10 -32 -18 -42 -18 -11 0 -19 -4 -19 -8 0 -12 -146 -83
-262 -127 -27 -10 -48 -22 -48 -26 0 -15 -138 -11 -143 4 -4 9 -8 9 -15 -1 -8
-12 -13 -12 -31 -1 -17 11 -25 11 -41 1 -24 -15 -170 -17 -170 -2 0 6 -22 10
-50 10 -69 0 -91 23 -126 137 -10 35 -22 63 -26 63 -5 0 -8 7 -8 15 0 8 -4 23
-9 33 -14 28 -54 115 -62 137 -27 77 -38 114 -41 139 -4 41 -28 47 -28 7 0
-17 5 -31 10 -31 6 0 10 -12 10 -27 0 -29 45 -223 60 -258 12 -27 51 -191 57
-237 3 -21 9 -38 14 -38 5 0 9 -10 9 -22 0 -13 10 -57 21 -98 32 -115 33 -121
18 -131 -10 -6 -6 -9 14 -9 15 0 27 5 27 10 0 6 18 10 40 10 22 0 40 3 40 8 0
7 58 25 123 39 15 3 27 9 27 14 0 5 9 9 19 9 11 0 32 6 48 14 15 8 42 20 58
26 17 7 38 16 47 21 10 5 23 9 30 9 12 0 83 32 158 71 19 10 51 25 70 34 19 9
51 25 70 35 19 10 51 27 70 37 19 9 41 23 48 30 7 7 20 13 28 13 8 0 14 3 14
8 0 4 15 14 33 21 17 8 37 20 44 25 31 28 41 34 61 40 11 4 34 19 50 34 16 15
40 33 53 40 13 7 42 28 64 47 22 19 43 35 47 35 4 0 17 10 30 23 13 12 41 35
63 51 22 16 62 51 89 78 26 26 50 48 53 48 4 0 193 189 193 194 0 1 29 33 65
69 36 37 65 71 65 76 0 5 18 27 40 49 22 22 40 43 40 47 0 3 6 13 13 20 29 33
37 45 37 55 0 5 5 10 10 10 6 0 10 7 10 15 0 9 16 31 35 49 19 19 35 44 35 55
0 12 5 21 11 21 16 0 38 31 39 53 0 9 5 17 10 17 6 0 10 8 10 19 0 10 11 27
25 37 14 10 25 29 25 41 0 13 5 23 10 23 6 0 10 9 10 20 0 11 7 20 15 20 8 0
15 7 15 15 0 20 -12 19 -30 -3z"/>
<path d="M4242 1950 c0 -14 2 -19 5 -12 2 6 2 18 0 25 -3 6 -5 1 -5 -13z"/>
<path d="M4260 1871 c0 -5 5 -13 10 -16 6 -3 10 -2 10 4 0 5 -4 13 -10 16 -5
3 -10 2 -10 -4z"/>
<path d="M4281 1803 c0 -5 4 -17 9 -28 8 -18 9 -17 9 8 1 15 -3 27 -9 27 -5 0
-10 -3 -9 -7z"/>
<path d="M4310 1706 c0 -9 5 -16 10 -16 6 0 10 4 10 9 0 6 -4 13 -10 16 -5 3
-10 -1 -10 -9z"/>
<path d="M4330 1610 c0 -5 5 -10 10 -10 6 0 10 5 10 10 0 6 -4 10 -10 10 -5 0
-10 -4 -10 -10z"/>
<path d="M4362 1500 c0 -14 2 -19 5 -12 2 6 2 18 0 25 -3 6 -5 1 -5 -13z"/>
<path d="M4380 1415 c0 -19 5 -35 10 -35 6 0 10 16 10 35 0 19 -4 35 -10 35
-5 0 -10 -16 -10 -35z"/>
<path d="M4401 1349 c0 -13 4 -33 8 -44 7 -17 9 -15 13 13 3 20 0 37 -9 43
-10 9 -13 6 -12 -12z"/>
<path d="M4424 1248 c3 -13 6 -27 6 -33 0 -5 5 -3 10 5 15 23 12 50 -6 50 -12
0 -15 -6 -10 -22z"/>
<path d="M4553 283 c9 -2 23 -2 30 0 6 3 -1 5 -18 5 -16 0 -22 -2 -12 -5z"/>
<path d="M4430 260 c0 -5 9 -10 20 -10 11 0 20 5 20 10 0 6 -9 10 -20 10 -11
0 -20 -4 -20 -10z"/>
<path d="M4298 233 c12 -2 30 -2 40 0 9 3 -1 5 -23 4 -22 0 -30 -2 -17 -4z"/>
<path d="M4128 213 c12 -2 32 -2 45 0 12 2 2 4 -23 4 -25 0 -35 -2 -22 -4z"/>
<path d="M3798 183 c6 -2 18 -2 25 0 6 3 1 5 -13 5 -14 0 -19 -2 -12 -5z"/>
</g>
</svg>
